<?xml version="1.0" standalone="no"?>
<!DOCTYPE svg PUBLIC "-//W3C//DTD SVG 20010904//EN"
 "http://www.w3.org/TR/2001/REC-SVG-20010904/DTD/svg10.dtd">
<svg version="1.0" xmlns="http://www.w3.org/2000/svg"
 width="2944.000000pt" height="1440.000000pt" viewBox="0 0 2944.000000 1440.000000"
 preserveAspectRatio="xMidYMid meet">

<g transform="translate(0.000000,1440.000000) scale(0.100000,-0.100000)"
fill="#000000" stroke="none">
<path d="M12470 12899 c-260 -141 -457 -321 -546 -499 -52 -104 -71 -279 -41
-368 14 -41 14 -43 -7 -58 -219 -151 -397 -283 -504 -373 -74 -61 -130 -106
-126 -99 4 7 17 27 29 43 65 88 134 290 142 413 7 99 -12 250 -38 310 l-19 44
-32 -23 c-124 -88 -278 -254 -372 -399 -141 -219 -167 -498 -60 -653 l26 -38
-79 -87 c-153 -167 -386 -460 -422 -530 -26 -49 -21 -11 8 75 78 228 62 444
-51 686 -29 62 -46 87 -57 85 -31 -6 -211 -296 -271 -436 -55 -130 -74 -224
-75 -367 0 -183 32 -274 133 -378 49 -50 55 -60 45 -76 -32 -52 -162 -320
-238 -492 -47 -107 -92 -207 -100 -224 -13 -27 -14 -27 -10 -5 42 236 23 394
-71 588 -43 90 -184 282 -207 282 -9 0 -105 -234 -125 -305 -43 -145 -56 -244
-56 -405 0 -166 12 -228 66 -351 33 -73 133 -179 204 -215 49 -26 55 -32 50
-54 -3 -14 -21 -92 -39 -175 -44 -189 -74 -351 -91 -480 -13 -102 -19 -103
-32 -5 -17 133 -85 303 -164 410 -85 114 -293 300 -336 300 -21 0 -54 -276
-54 -453 0 -290 79 -522 228 -673 71 -71 176 -130 252 -141 l53 -8 -2 -160
c-1 -141 4 -265 24 -545 l5 -75 -18 55 c-60 177 -190 350 -366 484 -43 33
-319 176 -340 176 -9 0 -7 -126 4 -220 48 -388 161 -661 342 -824 78 -71 126
-99 224 -131 63 -21 94 -26 153 -23 l74 3 23 -105 c32 -154 80 -340 120 -464
41 -132 42 -143 6 -90 -43 65 -81 104 -182 187 -144 119 -344 209 -555 250
-133 26 -141 26 -137 -3 15 -105 205 -510 303 -646 133 -185 299 -315 451
-355 98 -26 230 -25 305 1 31 11 57 19 58 17 81 -179 154 -318 243 -465 99
-162 97 -158 74 -141 -219 160 -365 226 -581 264 -96 17 -441 21 -441 5 0 -10
94 -176 131 -230 136 -199 295 -365 444 -465 169 -112 289 -155 431 -155 115
0 207 30 309 99 17 12 35 21 40 21 6 0 44 -41 85 -92 104 -127 146 -174 284
-316 134 -137 136 -130 -20 -62 -25 11 -92 32 -148 47 -89 24 -120 27 -266 27
-119 1 -193 -4 -265 -17 -125 -23 -297 -65 -316 -78 -29 -20 281 -288 475
-409 123 -78 281 -154 371 -181 147 -42 372 -35 484 17 62 28 177 119 205 162
l20 30 117 -89 c100 -75 244 -172 377 -252 18 -11 31 -21 29 -24 -3 -2 -33 1
-68 7 -92 14 -279 12 -384 -5 -158 -25 -289 -71 -468 -161 -156 -79 -201 -108
-185 -121 7 -6 72 -44 143 -85 434 -248 821 -334 1135 -253 156 40 297 149
360 278 35 73 38 73 101 41 51 -26 356 -142 432 -164 43 -13 80 -27 83 -32 3
-4 -18 -8 -46 -8 -160 0 -424 -88 -625 -208 -132 -79 -393 -301 -380 -323 9
-13 239 -85 348 -108 373 -80 699 -72 935 24 193 78 332 227 376 404 9 36 19
67 21 69 12 12 244 -77 379 -144 120 -60 331 -190 380 -235 6 -5 -19 -38 -60
-81 -38 -40 -87 -97 -108 -126 -89 -123 -195 -374 -209 -495 -6 -45 -4 -48 24
-63 17 -8 52 -18 79 -21 46 -5 49 -4 54 18 33 159 62 246 115 344 47 87 133
205 193 263 l45 43 45 -49 c68 -72 158 -198 200 -278 39 -74 59 -136 88 -269
l17 -80 39 3 c21 2 59 12 83 23 l43 19 -7 46 c-12 83 -34 152 -84 263 -61 138
-140 259 -228 351 -37 40 -69 76 -71 80 -3 8 74 66 168 127 149 95 575 282
596 261 3 -3 12 -34 20 -69 51 -218 254 -389 539 -454 281 -65 720 -20 1044
105 l85 33 -68 63 c-272 254 -533 396 -819 445 -183 32 -176 30 -152 39 11 5
76 26 145 49 69 22 190 67 270 100 l144 60 32 -60 c45 -85 76 -122 142 -172
109 -84 218 -123 386 -138 113 -10 216 -2 346 26 147 32 438 147 585 232 141
81 185 108 185 115 0 10 -165 102 -265 149 -233 107 -408 144 -644 136 -86 -3
-167 -9 -181 -12 -14 -4 45 40 130 97 85 57 195 133 244 168 48 36 97 71 108
79 17 13 23 9 71 -44 28 -32 78 -75 110 -96 93 -61 149 -73 317 -73 183 1 258
19 430 107 228 117 394 237 587 425 76 73 81 80 60 86 -238 68 -383 91 -572
90 -129 0 -178 -4 -252 -22 -99 -23 -193 -56 -261 -91 -23 -12 -42 -20 -42
-18 0 1 55 59 123 127 68 69 144 150 169 180 26 30 58 69 73 85 15 17 44 54
66 82 22 29 44 53 48 53 5 0 33 -16 63 -35 121 -80 269 -105 423 -70 216 48
483 251 675 512 88 120 201 314 190 326 -5 5 -84 9 -176 9 -339 0 -545 -65
-801 -254 -29 -21 -53 -35 -53 -31 0 3 24 43 53 87 71 107 95 149 197 352 l86
170 33 -13 c90 -37 266 -34 374 7 207 79 390 275 544 585 86 171 162 369 163
421 0 23 -211 -21 -359 -76 -167 -61 -284 -134 -409 -254 -40 -38 -86 -91
-103 -118 -18 -27 -33 -47 -35 -46 -2 2 15 60 37 128 32 101 127 473 145 567
4 19 7 21 36 12 115 -32 290 30 418 148 204 189 319 500 346 936 5 81 3 107
-6 107 -6 0 -71 -29 -143 -64 -129 -62 -275 -161 -327 -222 -53 -62 -107 -131
-131 -169 -53 -83 -61 -98 -90 -183 l-30 -87 6 70 c14 159 24 400 25 556 l0
166 45 6 c122 13 276 134 358 279 48 87 71 148 103 278 27 109 26 473 -2 609
-11 52 -24 96 -30 98 -20 7 -128 -74 -217 -162 -169 -168 -234 -298 -295 -595
l-10 -45 -1 40 c-4 99 -53 362 -116 621 -14 56 -25 106 -25 110 0 5 22 19 49
32 72 32 153 117 195 204 100 203 109 445 30 737 -35 126 -119 341 -134 341
-14 0 -97 -99 -147 -175 -106 -160 -146 -292 -147 -485 -1 -74 2 -155 6 -180
l7 -45 -15 35 c-8 19 -43 100 -77 180 -33 80 -105 234 -160 343 l-99 198 51
54 c191 202 181 564 -27 918 -72 123 -174 267 -188 267 -18 0 -71 -108 -109
-224 -70 -209 -59 -379 42 -656 3 -8 -19 20 -48 62 -92 132 -237 314 -360 453
l-118 133 29 54 c62 114 76 288 34 428 -21 74 -91 201 -166 302 -69 93 -219
246 -290 296 l-47 33 -15 -29 c-24 -46 -46 -176 -46 -269 0 -152 55 -328 146
-470 19 -29 30 -53 25 -53 -5 0 -11 3 -13 8 -1 4 -37 36 -78 72 -41 36 -77 68
-80 71 -9 11 -293 222 -388 289 -67 47 -91 69 -86 80 28 68 31 195 6 290 -42
159 -186 334 -397 481 -106 74 -259 159 -285 159 -10 0 -12 -28 -7 -127 7
-142 22 -208 71 -316 41 -91 78 -143 164 -231 l67 -69 -65 36 c-36 20 -103 51
-150 70 -218 89 -201 79 -277 167 -155 179 -339 272 -599 301 -155 18 -347 -9
-508 -70 l-28 -11 78 -58 c148 -109 248 -167 419 -243 11 -5 61 -21 110 -36
88 -27 97 -27 350 -29 l260 -1 150 -70 c176 -81 277 -138 230 -129 -16 3 -66
11 -110 17 -106 15 -226 -5 -332 -55 -78 -37 -222 -143 -260 -192 l-23 -28 23
-13 c31 -18 198 -70 282 -89 39 -8 142 -18 230 -21 143 -5 169 -3 245 16 104
26 173 59 255 121 l63 47 83 -58 c46 -32 109 -75 139 -95 100 -69 440 -346
440 -360 0 -2 -22 7 -49 21 -130 65 -304 83 -453 45 -121 -30 -308 -123 -308
-153 0 -12 37 -35 222 -139 110 -62 272 -123 369 -138 95 -15 277 -8 344 13
28 9 77 33 110 52 l60 37 34 -39 c168 -190 499 -623 476 -623 -2 0 -31 20 -62
44 -149 113 -345 164 -523 137 -106 -16 -250 -61 -250 -78 0 -23 229 -243 318
-307 249 -176 433 -213 732 -144 25 5 164 -276 296 -600 30 -73 54 -137 54
-143 0 -6 -18 12 -40 40 -44 56 -138 137 -217 187 -116 75 -311 114 -466 95
-48 -6 -92 -13 -97 -16 -22 -13 102 -221 217 -366 195 -244 352 -332 622 -348
l115 -6 16 -75 c10 -41 27 -118 38 -170 25 -108 82 -462 82 -500 -1 -19 -7
-12 -30 33 -96 189 -249 321 -450 390 -73 25 -224 57 -269 57 -16 0 -10 -39
23 -143 13 -40 34 -106 47 -147 28 -89 110 -253 170 -342 110 -163 313 -288
507 -315 l45 -6 -6 -271 c-4 -239 -11 -326 -34 -466 -6 -32 -7 -29 -15 28 -16
115 -106 278 -210 378 -91 89 -239 179 -383 235 -27 10 -52 19 -54 19 -9 0 9
-303 24 -390 19 -114 81 -304 131 -404 40 -79 138 -191 214 -243 58 -39 157
-90 192 -98 22 -6 27 -12 23 -29 -2 -11 -18 -82 -34 -156 -36 -161 -91 -359
-129 -455 l-27 -70 -6 85 c-17 219 -82 353 -253 525 -86 86 -241 203 -253 191
-14 -13 -53 -246 -63 -374 -24 -309 27 -540 160 -718 21 -28 79 -81 129 -119
50 -37 91 -68 91 -69 0 -9 -119 -241 -176 -344 -70 -125 -153 -262 -159 -262
-2 0 1 17 5 38 17 75 21 208 10 277 -16 104 -65 242 -115 326 -75 126 -232
305 -251 286 -3 -3 -27 -58 -53 -124 -64 -157 -108 -310 -131 -463 -51 -328
-3 -529 173 -724 l45 -50 -32 -40 c-99 -128 -403 -462 -412 -453 -3 2 7 29 21
60 39 84 55 177 55 323 0 142 -22 256 -73 379 -30 74 -128 247 -142 251 -13 4
-106 -124 -182 -251 -276 -456 -327 -841 -146 -1083 20 -26 22 -36 13 -47 -19
-23 -351 -256 -415 -291 -11 -6 -37 -20 -57 -32 -21 -12 -38 -20 -38 -17 0 3
16 25 35 51 52 68 103 181 130 290 29 114 33 278 10 409 -19 109 -68 305 -77
305 -14 0 -139 -109 -232 -204 -130 -133 -221 -242 -289 -346 -126 -196 -167
-315 -167 -489 0 -91 5 -118 30 -191 l29 -85 -21 -15 c-31 -22 -282 -115 -419
-155 -65 -19 -120 -35 -122 -35 -2 0 27 31 64 68 181 184 258 416 276 835 5
105 3 137 -6 137 -26 0 -234 -114 -367 -201 -302 -198 -477 -384 -561 -594
-27 -67 -28 -77 -27 -236 l0 -165 -62 -17 c-240 -63 -638 -266 -772 -394 -20
-19 -27 -17 -89 31 -87 65 -281 180 -400 237 -58 27 -172 72 -252 99 l-146 50
3 132 c4 159 -15 249 -78 366 -49 90 -53 95 -200 242 -92 91 -149 137 -275
221 -155 103 -378 229 -405 229 -11 0 -12 -31 -7 -164 15 -403 90 -623 278
-813 35 -35 57 -62 49 -59 -8 3 -58 17 -110 31 -123 34 -440 155 -440 168 0 2
12 37 26 78 38 110 44 266 15 374 -69 251 -283 544 -586 801 -38 32 -73 63
-77 69 -9 13 -11 9 -31 -65 -59 -219 -83 -407 -68 -541 18 -159 56 -262 146
-393 l46 -68 -63 36 c-61 34 -383 252 -442 299 l-28 23 27 39 c80 117 108 211
108 360 0 269 -119 556 -383 922 -25 34 -48 63 -53 63 -16 0 -157 -307 -176
-385 -56 -223 -40 -497 36 -613 32 -50 2 -27 -98 76 -113 117 -139 145 -245
272 -101 121 -100 120 -58 161 50 47 129 169 154 237 42 110 52 187 47 337 -3
77 -13 178 -22 224 -20 104 -101 349 -149 455 l-36 79 -22 -19 c-93 -82 -216
-245 -264 -349 -55 -120 -76 -212 -78 -350 0 -66 3 -145 7 -175 l8 -55 -72
120 c-73 122 -259 474 -259 491 0 5 21 22 47 39 26 16 78 58 114 92 53 51 76
82 117 165 83 166 97 239 96 508 0 206 -2 236 -27 349 -15 69 -29 126 -32 129
-6 7 -144 -87 -188 -130 -22 -21 -42 -38 -44 -38 -9 0 -111 -116 -145 -166
-79 -113 -118 -229 -126 -371 -2 -51 -8 -93 -11 -93 -15 0 -142 430 -177 599
-7 35 -16 72 -19 81 -4 13 2 19 24 23 106 22 253 125 353 247 74 92 163 320
194 498 15 86 24 375 12 387 -9 10 -207 -87 -285 -139 -96 -65 -179 -148 -246
-246 -59 -88 -106 -201 -107 -257 0 -17 -4 -34 -9 -37 -4 -3 -11 34 -15 82 -3
48 -11 130 -16 182 -5 52 -10 186 -10 296 l0 202 54 6 c206 26 416 177 538
386 62 105 127 253 153 345 30 106 55 200 55 208 0 12 -70 8 -140 -9 -283 -66
-490 -216 -591 -429 -36 -74 -36 -62 -4 147 41 263 62 369 102 514 l14 51 117
6 c135 8 199 23 297 71 167 82 374 311 514 567 l41 76 -81 13 c-138 22 -328
-5 -444 -62 -83 -41 -193 -125 -256 -197 -29 -34 -57 -61 -61 -61 -5 0 0 17
10 38 11 20 45 102 77 182 32 80 102 234 156 342 l98 197 68 -21 c90 -27 277
-29 373 -4 159 43 323 151 519 343 136 133 136 129 -14 168 -251 65 -483 29
-653 -101 -40 -30 -72 -51 -72 -48 0 21 263 363 413 536 l101 117 60 -33 c112
-62 154 -71 321 -70 132 0 160 3 235 27 137 41 370 158 477 238 21 15 21 17 5
31 -35 31 -164 97 -239 124 -63 21 -102 28 -201 32 -132 5 -191 -6 -301 -54
-29 -13 -56 -24 -58 -24 -8 0 238 203 322 266 109 82 273 197 311 219 l31 17
54 -41 c73 -56 163 -98 262 -121 191 -46 517 -9 729 82 l49 21 -48 49 c-193
198 -442 278 -659 213 -24 -7 -44 -10 -44 -6 0 5 69 42 153 84 274 136 220
122 477 119 255 -4 342 7 475 58 126 49 291 146 443 261 73 55 75 52 -53 92
-182 57 -406 58 -598 2 -167 -48 -258 -104 -392 -241 -106 -108 -122 -119
-240 -168 -49 -21 -130 -59 -180 -83 l-90 -45 61 63 c165 174 244 362 244 584
0 114 0 114 -110 54z"/>
</g>
</svg>
